<svg width="30" height="30" viewBox="0 0 30 30" fill="none" xmlns="http://www.w3.org/2000/svg">
<rect x="1" y="1" width="28" height="28" rx="7" stroke="#AEB2BA" stroke-width="2"/>
<path d="M22.9306 14.7189C22.881 14.8892 22.8441 15.2326 22.8441 15.2326L22.6097 16.5118L22.301 17.7471C22.301 17.7471 22.1207 18.148 22.0904 18.2743C21.9738 18.5718 21.8453 18.8642 21.7072 19.1491C21.43 19.7116 21.1116 20.2499 20.7551 20.7589C20.2337 21.5116 19.6295 22.1946 18.9556 22.7934C18.2971 23.4196 17.5571 23.9404 16.7587 24.3397C15.9664 24.734 15.1089 24.957 14.2356 24.9958C13.3634 25.0288 12.4943 24.8668 11.684 24.5203C10.8828 24.1503 10.1873 23.5608 9.66795 22.8112C9.14955 22.055 8.75443 21.2107 8.49925 20.3139C8.24835 19.4203 8.09579 18.4986 8.04463 17.5673C7.98512 16.7784 7.98512 15.9858 8.04463 15.197C8.23372 12.9419 8.9597 10.7759 10.1535 8.90525C10.9408 7.59517 12.0704 6.56063 13.4025 5.92973C14.745 5.33972 16.3279 5.31429 17.6013 6.04672C17.9417 6.24254 18.2892 6.50957 18.6867 6.36461C19.0842 6.21965 19.227 5.70593 19.515 5.37786C19.6611 5.21661 19.8454 5.1007 20.0483 5.04248C20.2512 4.98426 20.465 4.98591 20.6671 5.04725C20.8672 5.11484 21.0465 5.23927 21.1857 5.40724C21.3249 5.57521 21.4187 5.78041 21.4573 6.00094C21.5573 6.61384 21.2145 7.19622 20.9193 7.73283C20.281 8.89588 19.804 10.1517 19.5031 11.4611C19.3746 12.0155 19.2722 12.5928 18.9771 13.0684C18.6819 13.544 18.1416 13.8975 17.6156 13.7271C17.0895 13.5567 16.8134 12.9056 16.8229 12.3182C16.8325 11.7307 17.0491 11.1737 17.2085 10.6092C17.368 10.0446 17.4466 9.41132 17.2085 8.8849C16.8729 8.16263 16.0113 7.88542 15.2615 7.96935C13.3335 8.18552 12.2934 9.92505 11.5936 11.662C10.8549 13.4674 10.5332 15.436 10.6558 17.4019C10.6936 18.4166 10.9511 19.4081 11.4079 20.2986C12.2695 21.8423 13.9 22.356 15.4972 21.9796C16.4871 21.7233 17.3981 21.1976 18.1416 20.4537C18.7077 19.8854 19.213 19.2516 19.6483 18.5642C19.7316 18.4574 19.8078 18.3175 19.8863 18.203C20.241 17.6766 20.5933 17.1527 20.717 16.5118C20.758 16.1478 20.7264 15.7785 20.6242 15.4285C20.5831 15.046 20.6591 14.6596 20.8408 14.3273C21.0156 13.9806 21.2902 13.7033 21.6239 13.5363C21.7846 13.4643 21.9591 13.4341 22.1329 13.4482C22.3068 13.4623 22.4749 13.5204 22.6236 13.6177C22.7673 13.7146 22.8788 13.8574 22.942 14.0259C23.0053 14.1945 23.0171 14.38 22.9759 14.5562C22.9616 14.6045 22.945 14.6706 22.9306 14.7189Z" fill="#AEB2BA"/>
</svg>
