<svg width="30" height="30" viewBox="0 0 30 30" fill="none" xmlns="http://www.w3.org/2000/svg">
<path d="M17.9998 25V21C18.1389 19.7473 17.7797 18.4901 16.9998 17.5C19.9998 17.5 22.9998 15.5 22.9998 12C23.0798 10.75 22.7298 9.52 21.9998 8.5C22.2798 7.35 22.2798 6.15 21.9998 5C21.9998 5 20.9998 5 18.9998 6.5C16.3598 6 13.6398 6 10.9998 6.5C8.99979 5 7.99979 5 7.99979 5C7.69979 6.15 7.69979 7.35 7.99979 8.5C7.27167 9.51588 6.91827 10.7528 6.99979 12C6.99979 15.5 9.99979 17.5 12.9998 17.5C12.6098 17.99 12.3198 18.55 12.1498 19.15C11.9798 19.75 11.9298 20.38 11.9998 21V25" stroke="#AEB2BA" stroke-width="2" stroke-linecap="round" stroke-linejoin="round"/>
<path d="M12 21C7.49 23 7 19 5 19" stroke="#AEB2BA" stroke-width="2" stroke-linecap="round" stroke-linejoin="round"/>
<rect x="1" y="1" width="28" height="28" rx="7" stroke="#AEB2BA" stroke-width="2"/>
</svg>
