<svg width="30" height="30" viewBox="0 0 30 30" fill="none" xmlns="http://www.w3.org/2000/svg">
<path d="M10.6147 23H7.30823V12.3707H10.6147V23ZM8.92785 10.8511C7.86193 10.8511 7 9.98768 7 8.92497C7 7.86226 7.86305 7 8.92785 7C9.9904 7 10.8546 7.86338 10.8546 8.92497C10.8546 9.98768 9.9904 10.8511 8.92785 10.8511ZM23 23H19.6958V17.8309C19.6958 16.598 19.6733 15.0123 17.9775 15.0123C16.257 15.0123 15.9925 16.355 15.9925 17.7413V23H12.6883V12.3707H15.8602V13.8231H15.9051C16.3467 12.9877 17.4249 12.1064 19.0333 12.1064C22.3813 12.1064 23 14.308 23 17.1702V23Z" fill="#AEB2BA"/>
<rect x="1" y="1" width="28" height="28" rx="7" stroke="#AEB2BA" stroke-width="2"/>
</svg>
