<svg width="30" height="30" viewBox="0 0 30 30" fill="none" xmlns="http://www.w3.org/2000/svg">
<rect x="1" y="1" width="28" height="28" rx="7" stroke="#AEB2BA" stroke-width="2"/>
<path d="M12.8496 22.3377C12.6517 22.397 12.3351 22.4564 11.8998 22.5158C11.4843 22.5751 11.0489 22.6048 10.5938 22.6048C10.1584 22.6048 9.76272 22.5751 9.40654 22.5158C9.07007 22.4564 8.78322 22.3377 8.54576 22.1596C8.3083 21.9815 8.12025 21.744 7.9818 21.4472C7.86307 21.1306 7.80371 20.725 7.80371 20.2303V11.3257C7.80371 10.8706 7.88279 10.4847 8.04117 10.1681C8.21926 9.8317 8.46657 9.53488 8.78322 9.2776C9.09986 9.02032 9.48562 8.79283 9.94081 8.59492C10.4157 8.37729 10.9203 8.18923 11.4546 8.03096C11.9989 7.8705 12.5545 7.75143 13.1168 7.67478C13.6854 7.57629 14.2613 7.52664 14.8383 7.52637C15.7882 7.52637 16.5401 7.71432 17.0942 8.09032C17.6482 8.44651 17.9253 9.04015 17.9253 9.87124C17.9253 10.1482 17.8856 10.4253 17.8065 10.7023C17.7274 10.9596 17.6284 11.1971 17.5097 11.4147C17.0836 11.4152 16.6577 11.435 16.2334 11.4741C15.798 11.5136 15.3726 11.573 14.9571 11.6522C14.5415 11.7313 14.1457 11.8204 13.7698 11.9193C13.4136 11.9985 13.1068 12.0974 12.8496 12.2161V22.3377ZM17.6382 19.9631C17.6382 19.132 17.8954 18.4395 18.4099 17.8854C18.9245 17.3313 19.6269 17.0543 20.5174 17.0543C21.4078 17.0543 22.1102 17.3313 22.6248 17.8854C23.1393 18.4395 23.3965 19.132 23.3965 19.9631C23.3965 20.7942 23.1392 21.4868 22.6248 22.0409C22.1103 22.595 21.4078 22.8719 20.5174 22.8719C19.6269 22.8719 18.9244 22.595 18.4099 22.0409C17.8955 21.4868 17.6382 20.7942 17.6382 19.9631Z" fill="#AEB2BA"/>
</svg>
