<svg width="30" height="30" viewBox="0 0 30 30" fill="none" xmlns="http://www.w3.org/2000/svg">
<path d="M20.4878 10.2295C18.3333 10.2295 16.7073 11.6176 16.0569 13.7989C15.0407 12.2521 14.2276 10.5071 13.7805 9H11.5041V14.83C11.5041 15.9802 10.5285 16.932 9.34959 16.932C8.17073 16.932 7.19512 15.9802 7.19512 14.83V9.03966H5V14.8697C5 17.289 6.99187 19.2323 9.43089 19.2323C11.8699 19.2323 13.8618 17.289 13.8618 14.8697V13.8782C14.3089 14.7507 14.878 15.7025 15.4878 16.5354L14.065 23H16.3821L17.3577 18.2805C18.252 18.8357 19.2683 19.153 20.4878 19.153C22.9675 19.153 25 17.17 25 14.6317C25 12.2125 22.9675 10.2295 20.4878 10.2295ZM20.4878 16.932C19.5935 16.932 18.6585 16.5354 17.9268 15.9405L18.1707 15.068V15.0283C18.3333 14.0765 18.8618 12.4901 20.5285 12.4901C21.7886 12.4901 22.8049 13.4816 22.8049 14.711C22.7642 15.9405 21.6667 16.932 20.4878 16.932Z" fill="#AEB2BA"/>
<rect x="1" y="1" width="28" height="28" rx="7" stroke="#AEB2BA" stroke-width="2"/>
</svg>
