<svg xmlns="http://www.w3.org/2000/svg" version="1.1" xmlns:xlink="http://www.w3.org/1999/xlink" xmlns:svgjs="http://svgjs.dev/svgjs" width="50" height="50"><svg width="50" height="50" viewBox="0 0 50 50" fill="none" xmlns="http://www.w3.org/2000/svg">
<rect width="50" height="50" rx="6" fill="white"></rect>
<path d="M2.1875 34.0312L2.59375 33.7188L2.625 33.0625C3.14583 31.7917 3.67708 30.5729 4.21875 29.4062C4.78125 28.2396 5.36458 27.0417 5.96875 25.8125C6.15625 25.4167 6.34375 25.0208 6.53125 24.625C6.73958 24.2292 6.9375 23.8229 7.125 23.4062C7.10417 23.3229 7.09375 23.2396 7.09375 23.1562C7.09375 23.0521 7.11458 22.9375 7.15625 22.8125C7.44792 22.3958 7.67708 22.0208 7.84375 21.6875C8.03125 21.3542 8.20833 21.0104 8.375 20.6562C8.5625 20.2396 8.76042 19.8229 8.96875 19.4062C9.19792 18.9896 9.47917 18.5833 9.8125 18.1875L10.0312 17.875L10.375 17.9062C10.4583 17.8646 10.5417 17.8333 10.625 17.8125C10.7292 17.7708 10.8542 17.75 11 17.75L11.5625 17.8438C12.25 17.5312 12.8542 17.0833 13.375 16.5C13.9167 15.8958 14.4583 15.1771 15 14.3438L15.375 13.8125L15.875 14.125C15.9792 14.1875 16.1458 14.25 16.375 14.3125C16.6042 14.375 16.8438 14.4479 17.0938 14.5312C17.5312 14.6354 17.9583 14.7604 18.375 14.9062C18.7917 15.0312 19.1146 15.2083 19.3438 15.4375L19.5 15.7188C19.5417 15.9479 19.5729 16.1562 19.5938 16.3438C19.6354 16.5312 19.6771 16.7188 19.7188 16.9062C19.8021 17.3438 19.875 17.7812 19.9375 18.2188C20 18.6354 20.0417 19.1042 20.0625 19.625C20.1667 20.0417 20.2604 20.4688 20.3438 20.9062C20.4479 21.3229 20.5417 21.7396 20.625 22.1562C20.7292 22.7604 20.8438 23.3438 20.9688 23.9062C21.0938 24.4479 21.2604 24.9688 21.4688 25.4688C21.6771 25.4688 21.8021 25.4792 21.8438 25.5C22.0938 25.3958 22.3854 25.3333 22.7188 25.3125L23.125 25.2812L23.25 25.6562C23.2917 25.7188 23.3438 25.7812 23.4062 25.8438C23.4688 25.9062 23.5417 25.9688 23.625 26.0312C23.9583 26.0521 24.1979 26.125 24.3438 26.25C24.5104 26.3542 24.6458 26.4583 24.75 26.5625C24.7917 26.6042 24.8438 26.6562 24.9062 26.7188C24.9688 26.7604 25.0208 26.7917 25.0625 26.8125L25.625 27.0312L25.3125 27.625C25.0833 28.0625 24.7292 28.4896 24.25 28.9062C23.7917 29.3229 23.2708 29.6667 22.6875 29.9375C22.7292 30.0833 22.75 30.2188 22.75 30.3438C22.7708 30.4688 22.8021 30.6146 22.8438 30.7812C22.9271 31.1979 22.9896 31.6354 23.0312 32.0938C23.0938 32.5312 23.0938 32.9896 23.0312 33.4688C22.8229 34.0104 22.5729 34.5 22.2812 34.9375C22.0104 35.3542 21.6771 35.7396 21.2812 36.0938C20.9062 36.4271 20.4792 36.7083 20 36.9375C19.5208 37.1458 19.0208 37.2604 18.5 37.2812C18.2083 37.2188 17.9896 37.1458 17.8438 37.0625C17.7188 36.9792 17.6042 36.8958 17.5 36.8125C17.3333 36.6875 17.1979 36.6042 17.0938 36.5625L16.6875 36.375L16.8125 35.9062C16.875 35.7396 16.8646 35.5938 16.7812 35.4688C16.7188 35.3438 16.5729 35.1771 16.3438 34.9688C16.2604 34.9062 16.1875 34.8438 16.125 34.7812C16.0625 34.6979 15.9896 34.6146 15.9062 34.5312L15.2812 33.8125L16.3125 33.5312C16.9375 33.3646 17.3542 33.1562 17.5625 32.9062C17.7708 32.6354 17.8542 32.1667 17.8125 31.5C17.2917 31.3958 16.8646 31.3854 16.5312 31.4688C16.1979 31.5312 15.8646 31.6042 15.5312 31.6875C15.0521 31.8125 14.5833 31.9271 14.125 32.0312C13.6667 32.1146 13.1667 32.1562 12.625 32.1562C12.2708 32.1562 11.8958 32.125 11.5 32.0625L11.1562 32.0312L11.0625 31.6875C11.0625 31.6458 11.0312 31.6042 10.9688 31.5625C10.9271 31.5 10.8854 31.4479 10.8438 31.4062C10.7396 31.2812 10.6146 31.1146 10.4688 30.9062C10.3229 30.6979 10.2917 30.4375 10.375 30.125C10.2292 29.8958 10.1458 29.6562 10.125 29.4062C10.0417 29.5729 9.96875 29.7396 9.90625 29.9062C9.86458 30.0521 9.82292 30.1979 9.78125 30.3438L9.65625 30.75L9.25 30.8125C9.20833 30.8542 9.16667 30.9167 9.125 31C9.10417 31.0833 9.10417 31.1458 9.125 31.1875L9.25 31.5312L8.9375 31.8125C8.89583 31.875 8.84375 31.9271 8.78125 31.9688C8.71875 32.0104 8.66667 32.0521 8.625 32.0938C8.58333 32.3229 8.52083 32.5417 8.4375 32.75C8.375 32.9583 8.30208 33.1667 8.21875 33.375C8.11458 33.7083 8.01042 34.0312 7.90625 34.3438C7.82292 34.6562 7.78125 34.9688 7.78125 35.2812L7.65625 35.6875C7.55208 35.8542 7.41667 35.9792 7.25 36.0625C7.10417 36.1458 6.95833 36.2188 6.8125 36.2812C6.60417 36.3646 6.45833 36.4479 6.375 36.5312L6.28125 36.9375L5.8125 37C5.54167 37.0625 5.34375 37.1042 5.21875 37.125C5.11458 37.1458 4.98958 37.1562 4.84375 37.1562L4.4375 37.125C4.1875 36.875 3.97917 36.6875 3.8125 36.5625C3.66667 36.4167 3.48958 36.2917 3.28125 36.1875L3.09375 35.9375C3.01042 35.7708 2.95833 35.625 2.9375 35.5C2.91667 35.3542 2.88542 35.2083 2.84375 35.0625C2.80208 34.7917 2.73958 34.6042 2.65625 34.5L2.1875 34.0312ZM12.1562 25.9062C11.8646 26.3229 11.5833 26.7604 11.3125 27.2188C11.4583 27.1979 11.5938 27.1875 11.7188 27.1875C11.8646 27.1875 12.0104 27.1771 12.1562 27.1562C12.8854 27.1146 13.5625 27.0625 14.1875 27C14.8125 26.9375 15.4896 26.8333 16.2188 26.6875C16.0521 25.9167 15.8646 25.1354 15.6562 24.3438C15.4688 23.5312 15.2604 22.7188 15.0312 21.9062L14.875 22.2188C14.3542 22.7812 13.8542 23.3854 13.375 24.0312C12.8958 24.6771 12.5 25.2917 12.1875 25.875L12.1562 25.9062ZM27.4375 21.9062C26.5625 21.5521 25.8333 21.0521 25.25 20.4062C24.6875 19.7604 24.2292 19 23.875 18.125C24.0833 17.5625 24.4167 17.0938 24.875 16.7188C25.3333 16.3229 25.8438 15.9896 26.4062 15.7188C26.9896 15.4479 27.6042 15.2292 28.25 15.0625C28.8958 14.8958 29.5208 14.75 30.125 14.625C30.25 14.6667 30.3125 14.6667 30.3125 14.625C30.3125 14.5833 30.3646 14.6042 30.4688 14.6875C31.2188 14.4583 32.0833 14.2396 33.0625 14.0312C34.0417 13.8021 35.0833 13.7188 36.1875 13.7812C36.3333 13.6979 36.5104 13.6562 36.7188 13.6562C36.9271 13.6354 37.1458 13.625 37.375 13.625C37.6042 13.625 37.8229 13.625 38.0312 13.625C38.2396 13.6042 38.4167 13.5625 38.5625 13.5C38.6875 13.6458 38.875 13.7396 39.125 13.7812C39.375 13.8021 39.6354 13.9062 39.9062 14.0938C39.9896 14.1146 39.9896 14.0833 39.9062 14C39.8229 13.8958 39.8333 13.8229 39.9375 13.7812C40.2083 13.7812 40.4479 13.8438 40.6562 13.9688C40.8646 14.0938 41.0521 14.2396 41.2188 14.4062C41.4062 14.5521 41.5729 14.6875 41.7188 14.8125C41.8854 14.9375 42.0625 15 42.25 15C42.4375 15.2292 42.6562 15.4479 42.9062 15.6562C43.1771 15.8438 43.4271 16.0417 43.6562 16.25C43.9062 16.4583 44.1042 16.6875 44.25 16.9375C44.4167 17.1875 44.5 17.4688 44.5 17.7812C44.4792 17.9062 44.5208 17.9792 44.625 18C44.7292 18.0208 44.8021 18.0833 44.8438 18.1875C44.8646 18.9583 44.7396 19.625 44.4688 20.1875C44.2188 20.75 43.8958 21.2708 43.5 21.75C43.1042 22.2083 42.6771 22.6458 42.2188 23.0625C41.7812 23.4792 41.375 23.9271 41 24.4062C41.25 24.7188 41.5312 25.0104 41.8438 25.2812C42.1771 25.5312 42.5104 25.7812 42.8438 26.0312C43.1771 26.2812 43.4896 26.5521 43.7812 26.8438C44.0938 27.1146 44.3542 27.4271 44.5625 27.7812C44.625 27.9062 44.7604 27.9896 44.9688 28.0312C45.0312 28.2812 45.1146 28.5417 45.2188 28.8125C45.3438 29.0625 45.4583 29.3125 45.5625 29.5625C45.6667 29.7917 45.7292 30 45.75 30.1875C45.7708 30.375 45.7188 30.5312 45.5938 30.6562C45.7396 30.7396 45.8229 30.875 45.8438 31.0625C45.8646 31.2292 45.8646 31.3646 45.8438 31.4688C45.3854 32.0312 45.0729 32.4271 44.9062 32.6562C44.7396 32.8854 44.6146 33.0521 44.5312 33.1562C44.4479 33.2604 44.3646 33.3542 44.2812 33.4375C44.1979 33.5208 44.0104 33.6875 43.7188 33.9375C42.6146 34.6042 41.4583 35.2083 40.25 35.75C39.0625 36.2708 37.8229 36.625 36.5312 36.8125C36.4271 36.9583 36.2708 37.0729 36.0625 37.1562C35.875 37.2604 35.6562 37.3438 35.4062 37.4062C35.1562 37.4688 34.8854 37.5208 34.5938 37.5625C34.3229 37.6042 34.0729 37.6458 33.8438 37.6875C33.7396 37.6458 33.6771 37.5729 33.6562 37.4688C33.6562 37.3854 33.6042 37.3229 33.5 37.2812C33.4792 37.5312 33.3646 37.6562 33.1562 37.6562C32.9688 37.6771 32.7292 37.6354 32.4375 37.5312C32.1458 37.4271 31.8438 37.2812 31.5312 37.0938C31.2188 36.9062 30.9479 36.7292 30.7188 36.5625C30.6146 36.75 30.4792 36.9479 30.3125 37.1562C30.1667 37.3646 30.0104 37.5104 29.8438 37.5938C29.5521 37.5521 29.3333 37.5208 29.1875 37.5C29.0625 37.4792 28.9375 37.5312 28.8125 37.6562C28.6458 37.5729 28.5208 37.4792 28.4375 37.375C28.3542 37.2917 28.2708 37.1979 28.1875 37.0938C28.1042 37.0104 28.0104 36.9375 27.9062 36.875C27.8021 36.7917 27.6458 36.7188 27.4375 36.6562C27.4792 36.5521 27.4479 36.3958 27.3438 36.1875C27.2396 35.9583 27.0938 35.8229 26.9062 35.7812C27.0104 35.6146 26.9688 35.4062 26.7812 35.1562C26.5938 34.8854 26.4479 34.5833 26.3438 34.25C26.3646 34.1042 26.375 33.9583 26.375 33.8125C26.3958 33.6458 26.4167 33.5 26.4375 33.375C26.4792 33.2292 26.5312 33.1042 26.5938 33C26.6562 32.8958 26.7604 32.8229 26.9062 32.7812C26.8854 32.5104 26.8021 32.25 26.6562 32C26.8438 31.8542 26.9688 31.6771 27.0312 31.4688C27.0938 31.2396 27.1458 31.0104 27.1875 30.7812C27.25 30.5521 27.3229 30.3333 27.4062 30.125C27.4896 29.8958 27.625 29.7083 27.8125 29.5625C27.7708 29.5 27.7292 29.4479 27.6875 29.4062C27.6458 29.3646 27.625 29.2917 27.625 29.1875C27.9375 28.6667 28.1562 28.2292 28.2812 27.875C28.4062 27.5 28.5 27.1458 28.5625 26.8125C28.6458 26.4583 28.7292 26.0833 28.8125 25.6875C28.8958 25.2917 29.0625 24.7917 29.3125 24.1875C29.2917 23.8125 29.3333 23.4792 29.4375 23.1875C29.5417 22.8958 29.6458 22.6146 29.75 22.3438C29.875 22.0521 29.9688 21.75 30.0312 21.4375C30.0938 21.125 30.0833 20.7604 30 20.3438C29.6458 20.3854 29.3854 20.5104 29.2188 20.7188C29.0729 20.9271 28.9792 21.2083 28.9375 21.5625C28.75 21.7292 28.5104 21.8125 28.2188 21.8125C27.9271 21.7917 27.6667 21.8229 27.4375 21.9062ZM41.1875 27.9375C40.3958 27.5 39.6667 27.2396 39 27.1562C38.3542 27.0729 37.7292 27.0833 37.125 27.1875C36.5417 27.2708 35.9792 27.3958 35.4375 27.5625C34.8958 27.7292 34.3542 27.8542 33.8125 27.9375C33.5417 28.6458 33.2604 29.4271 32.9688 30.2812C32.6771 31.1354 32.3958 31.9688 32.125 32.7812C32.875 32.6771 33.5625 32.5208 34.1875 32.3125C34.8125 32.1042 35.4167 31.875 36 31.625C36.5833 31.3542 37.1562 31.0938 37.7188 30.8438C38.2812 30.5729 38.8646 30.3229 39.4688 30.0938C39.5312 29.8438 39.6667 29.6458 39.875 29.5C40.0833 29.3542 40.2917 29.2188 40.5 29.0938C40.7083 28.9479 40.8854 28.7917 41.0312 28.625C41.1771 28.4583 41.2292 28.2292 41.1875 27.9375ZM39 18.1562C37.7083 18.1146 36.4375 18.2292 35.1875 18.5C33.9375 18.7708 32.8854 19.1667 32.0312 19.6875C32.4479 20.0417 32.875 20.3542 33.3125 20.625C33.7708 20.8958 34.1146 21.2604 34.3438 21.7188C35.3438 21.3229 36.2188 20.8229 36.9688 20.2188C37.7188 19.5938 38.3958 18.9062 39 18.1562Z" fill="black"></path>
</svg><style>@media (prefers-color-scheme: light) { :root { filter: none; } }
@media (prefers-color-scheme: dark) { :root { filter: none; } }
</style></svg>